<svg width="105" height="105" viewBox="0 0 105 105" fill="none" xmlns="http://www.w3.org/2000/svg">
<circle cx="52.5" cy="52.5" r="52.5" fill="#EEEEEE"/>
<path d="M28.2642 60V45.4545H34.0028C35.1013 45.4545 36.0388 45.651 36.8153 46.044C37.5966 46.4323 38.1908 46.9839 38.598 47.6989C39.0099 48.4091 39.2159 49.2448 39.2159 50.206C39.2159 51.1719 39.0076 52.0028 38.5909 52.6989C38.1742 53.3902 37.5705 53.9205 36.7798 54.2898C35.9938 54.6591 35.0421 54.8438 33.9247 54.8438H30.0824V52.3722H33.4276C34.0147 52.3722 34.5024 52.2917 34.8906 52.1307C35.2789 51.9697 35.5677 51.7282 35.7571 51.4062C35.9512 51.0843 36.0483 50.6842 36.0483 50.206C36.0483 49.723 35.9512 49.3158 35.7571 48.9844C35.5677 48.6529 35.2765 48.402 34.8835 48.2315C34.4953 48.0563 34.0052 47.9688 33.4134 47.9688H31.3395V60H28.2642ZM36.1193 53.3807L39.7344 60H36.3395L32.8026 53.3807H36.1193ZM46.0856 60.2131C44.9824 60.2131 44.0283 59.9787 43.2234 59.5099C42.4232 59.0365 41.8053 58.3783 41.3697 57.5355C40.9341 56.688 40.7163 55.7055 40.7163 54.5881C40.7163 53.4612 40.9341 52.4763 41.3697 51.6335C41.8053 50.786 42.4232 50.1278 43.2234 49.6591C44.0283 49.1856 44.9824 48.9489 46.0856 48.9489C47.1888 48.9489 48.1405 49.1856 48.9407 49.6591C49.7456 50.1278 50.3659 50.786 50.8015 51.6335C51.2371 52.4763 51.4549 53.4612 51.4549 54.5881C51.4549 55.7055 51.2371 56.688 50.8015 57.5355C50.3659 58.3783 49.7456 59.0365 48.9407 59.5099C48.1405 59.9787 47.1888 60.2131 46.0856 60.2131ZM46.0998 57.8693C46.6017 57.8693 47.0207 57.7273 47.3569 57.4432C47.6931 57.1544 47.9464 56.7614 48.1168 56.2642C48.292 55.767 48.3796 55.2012 48.3796 54.5668C48.3796 53.9323 48.292 53.3665 48.1168 52.8693C47.9464 52.3722 47.6931 51.9792 47.3569 51.6903C47.0207 51.4015 46.6017 51.2571 46.0998 51.2571C45.5932 51.2571 45.167 51.4015 44.8214 51.6903C44.4805 51.9792 44.2224 52.3722 44.0472 52.8693C43.8768 53.3665 43.7915 53.9323 43.7915 54.5668C43.7915 55.2012 43.8768 55.767 44.0472 56.2642C44.2224 56.7614 44.4805 57.1544 44.8214 57.4432C45.167 57.7273 45.5932 57.8693 46.0998 57.8693ZM56.4478 45.4545V60H53.4222V45.4545H56.4478ZM61.9822 60.206C61.2862 60.206 60.666 60.0852 60.1214 59.8438C59.5769 59.5975 59.1461 59.2353 58.8288 58.7571C58.5163 58.2741 58.3601 57.6728 58.3601 56.9531C58.3601 56.3471 58.4714 55.8381 58.6939 55.4261C58.9164 55.0142 59.2195 54.6828 59.603 54.4318C59.9865 54.1809 60.4221 53.9915 60.9098 53.8636C61.4022 53.7358 61.9183 53.6458 62.4581 53.5938C63.0926 53.5275 63.6039 53.4659 63.9922 53.4091C64.3804 53.3475 64.6622 53.2576 64.8374 53.1392C65.0125 53.0208 65.1001 52.8456 65.1001 52.6136V52.571C65.1001 52.1212 64.9581 51.7732 64.674 51.527C64.3946 51.2808 63.9969 51.1577 63.4808 51.1577C62.9363 51.1577 62.5031 51.2784 62.1811 51.5199C61.8591 51.7566 61.6461 52.0549 61.5419 52.4148L58.7436 52.1875C58.8857 51.5246 59.165 50.9517 59.5817 50.4688C59.9983 49.9811 60.5357 49.607 61.1939 49.3466C61.8568 49.0814 62.6238 48.9489 63.495 48.9489C64.1011 48.9489 64.6811 49.0199 65.2351 49.1619C65.7938 49.304 66.2886 49.5241 66.7195 49.8224C67.1551 50.1207 67.4983 50.5043 67.7493 50.973C68.0002 51.437 68.1257 51.9934 68.1257 52.642V60H65.2564V58.4872H65.1712C64.996 58.8281 64.7616 59.1288 64.468 59.3892C64.1745 59.6449 63.8217 59.8461 63.4098 59.9929C62.9979 60.1349 62.522 60.206 61.9822 60.206ZM62.8487 58.1179C63.2938 58.1179 63.6868 58.0303 64.0277 57.8551C64.3686 57.6752 64.6361 57.4337 64.8303 57.1307C65.0244 56.8277 65.1214 56.4844 65.1214 56.1009V54.9432C65.0268 55.0047 64.8965 55.0616 64.7308 55.1136C64.5698 55.161 64.3875 55.206 64.1839 55.2486C63.9804 55.2865 63.7768 55.322 63.5732 55.3551C63.3696 55.3835 63.1849 55.4096 63.0192 55.4332C62.6641 55.4853 62.3539 55.5682 62.0888 55.6818C61.8236 55.7955 61.6177 55.9493 61.4709 56.1435C61.3241 56.3329 61.2507 56.5696 61.2507 56.8537C61.2507 57.2656 61.3999 57.5805 61.6982 57.7983C62.0012 58.0114 62.3847 58.1179 62.8487 58.1179ZM70.473 60V49.0909H73.4062V50.9943H73.5199C73.7188 50.3172 74.0526 49.8059 74.5213 49.4602C74.9901 49.1098 75.5298 48.9347 76.1406 48.9347C76.2921 48.9347 76.4555 48.9441 76.6307 48.9631C76.8059 48.982 76.9598 49.008 77.0923 49.0412V51.7259C76.9503 51.6832 76.7538 51.6454 76.5028 51.6122C76.2519 51.5791 76.0223 51.5625 75.8139 51.5625C75.3688 51.5625 74.9711 51.6596 74.6207 51.8537C74.2751 52.0431 74.0005 52.3082 73.7969 52.6491C73.598 52.9901 73.4986 53.383 73.4986 53.8281V60H70.473Z" fill="black"/>
</svg>
