<svg width="28" height="28" viewBox="0 0 28 28" fill="none" xmlns="http://www.w3.org/2000/svg">
<path d="M27.7753 9.36081L22.88 2.92446C22.7341 2.73247 22.5253 2.5895 22.2887 2.5143L14.3663 0.0564026C14.1298 -0.0188009 13.8737 -0.0188009 13.6371 0.0564026L5.7147 2.5143C5.47818 2.5895 5.26934 2.73272 5.12339 2.92446L0.224695 9.36081C0.0787489 9.5528 0 9.78612 0 10.0233V17.9766C0 18.2138 0.0787489 18.4471 0.224695 18.6391L5.11995 25.0755C5.26589 25.2675 5.47473 25.4104 5.71126 25.4856L13.6337 27.9435C13.7519 27.9813 13.8742 28 14.0003 28C14.1263 28 14.2486 27.9813 14.3669 27.9435L22.2893 25.4856C22.5258 25.4104 22.7347 25.2672 22.8806 25.0755L27.7753 18.6391C27.9212 18.4471 28 18.2138 28 17.9766V10.0233C28 9.78612 27.9212 9.5528 27.7753 9.36081ZM24.9927 9.5451L21.3112 11.0544L15.1824 6.80105V2.68737L21.1892 4.55053L24.9927 9.5451ZM17.5671 19.2562H10.4332L8.22999 12.7782L14.0003 8.77336L19.7707 12.7782L17.5671 19.2562ZM6.80706 4.54994L12.814 2.68677V6.8046L6.68878 11.0544L3.00735 9.5451L6.80706 4.54994ZM2.36497 17.6108V11.7389L5.88086 13.1804L8.24959 20.1403L6.14101 22.5718L2.36497 17.6108ZM14.0002 25.6851L8.09973 23.8558L10.1295 21.5146H17.8668L19.8966 23.8558L14.0002 25.6851ZM21.8593 22.5722L19.7507 20.1407L22.1194 13.1808L25.6353 11.7393V17.6112L21.8593 22.5722Z" fill="white"/>
</svg>
