<svg width="25" height="28" viewBox="0 0 25 28" fill="none" xmlns="http://www.w3.org/2000/svg">
<path d="M24.4281 6.80404L13.3674 0.16917C13.0046 -0.0462319 12.555 -0.0579782 12.1845 0.145681L0.867661 6.33421C0.497125 6.53787 0.264263 6.92144 0.256464 7.34026L0.000203526 20.1675C-0.00759435 20.5863 0.209138 20.9778 0.571876 21.197L11.6326 27.8316C11.8219 27.945 12.0309 28 12.2438 28C12.4409 28 12.638 27.953 12.8155 27.8551L24.1323 21.6628C24.5029 21.4591 24.7357 21.0755 24.7435 20.6567L24.9998 7.82949C25.0079 7.4107 24.7908 7.01915 24.4281 6.80397L24.4281 6.80404ZM22.4684 16.1197L15.7017 4.31062L22.6184 8.45965L22.4684 16.1197ZM21.5181 19.216L3.69067 19.0398L12.5906 3.62962L21.5181 19.216ZM9.47162 4.31007L2.44059 16.4834L2.61026 8.06422L9.47162 4.31007ZM12.2673 25.4669L5.49682 21.4079L19.4398 21.5448L12.2673 25.4669Z" fill="white"/>
</svg>
