<svg width="27" height="29" viewBox="0 0 27 29" fill="none" xmlns="http://www.w3.org/2000/svg">
<path d="M26.2883 21.0775C26.3085 21.0352 26.3247 20.9926 26.341 20.9464C26.3531 20.9001 26.3611 20.8538 26.3653 20.8076C26.3694 20.7729 26.3815 20.7382 26.3854 20.7035L27 7.28541C27 7.26228 26.9959 7.23915 26.9959 7.21602C26.9959 7.18133 26.9959 7.14269 26.9917 7.10799C26.9876 7.07723 26.9796 7.05016 26.9755 7.02308C26.9675 6.99233 26.9633 6.96131 26.9553 6.93056C26.9473 6.8998 26.9352 6.87273 26.9231 6.84197C26.9109 6.8149 26.9029 6.78809 26.8908 6.76101C26.8787 6.73394 26.8586 6.70713 26.8423 6.68005C26.826 6.65298 26.8139 6.62985 26.7938 6.60304C26.7736 6.57596 26.7532 6.55283 26.7331 6.5297C26.713 6.50657 26.6967 6.48344 26.6724 6.46425C26.6482 6.44112 26.6239 6.42193 26.5955 6.3988C26.5712 6.37961 26.5511 6.36016 26.5268 6.34491C26.4984 6.32572 26.4662 6.30627 26.4339 6.28708C26.4138 6.27552 26.3934 6.26001 26.3733 6.24844L13.988 0.119601C13.9516 0.100412 13.9111 0.0964693 13.8747 0.0809604C13.8303 0.0654516 13.7856 0.0462632 13.7413 0.034697C13.6886 0.0231315 13.6362 0.0191882 13.5835 0.0115653C13.5391 0.00762248 13.4945 0 13.4501 0C13.3974 0 13.345 0.00762278 13.2924 0.0155088C13.248 0.0231316 13.2033 0.0270747 13.1589 0.0346976C13.1062 0.0462637 13.0618 0.0693955 13.0133 0.0885839C12.9769 0.104093 12.9405 0.107773 12.9083 0.127224L0.608443 6.36044C0.600447 6.36438 0.596311 6.36806 0.588314 6.372C0.576182 6.37963 0.564049 6.38751 0.547781 6.39513C0.519381 6.41064 0.491256 6.42983 0.462858 6.44534C0.438593 6.46453 0.414329 6.48398 0.390068 6.50317C0.369939 6.51868 0.349535 6.53392 0.333543 6.54943L0.329407 6.55337C0.325271 6.55732 0.321412 6.561 0.321412 6.56494C0.297148 6.58807 0.277018 6.6112 0.256614 6.63433C0.236485 6.65746 0.216082 6.6806 0.20009 6.70372C0.187958 6.72291 0.175825 6.74236 0.159557 6.76155C0.155421 6.76918 0.151561 6.77312 0.147424 6.77706C0.143288 6.78469 0.143288 6.79257 0.139428 6.79625C0.127296 6.81544 0.115164 6.83489 0.107168 6.85802C0.095035 6.8851 0.0829039 6.91191 0.0707721 6.94293C0.0586396 6.97 0.0465077 7.00076 0.0385115 7.02783C0.0385115 7.03177 0.0343756 7.03939 0.0343756 7.04334V7.04728C0.0263794 7.07041 0.0263787 7.09354 0.0222423 7.12062C0.0181063 7.15137 0.0101099 7.17845 0.00597416 7.2092C0.00183845 7.23995 0.00183819 7.27097 0.00183819 7.30173C0.00183819 7.31724 -0.00229773 7.33248 0.00183819 7.34799V7.37506L0.563777 20.6895C0.563777 20.7242 0.575909 20.755 0.583905 20.7897C0.591901 20.8399 0.596038 20.8898 0.612305 20.9361C0.624438 20.9784 0.644566 21.021 0.660834 21.0633C0.680963 21.1096 0.69723 21.1519 0.725631 21.1945C0.749895 21.2331 0.778295 21.2715 0.806418 21.3062C0.838678 21.3448 0.867079 21.3832 0.903475 21.4179C0.935736 21.4526 0.976265 21.4797 1.0168 21.5065C1.0452 21.5257 1.06947 21.5527 1.09759 21.5719L12.8158 28.8186C12.8158 28.8186 12.8199 28.8186 12.8199 28.8226C12.9048 28.8765 12.9978 28.9112 13.091 28.9422C13.1111 28.9498 13.1353 28.9537 13.1557 28.9614C13.2487 28.9845 13.3457 29 13.4469 29C13.544 29 13.641 28.9845 13.734 28.9614C13.7582 28.9574 13.7784 28.9498 13.8026 28.9422C13.8955 28.9151 13.9887 28.8767 14.0695 28.8265C14.0737 28.8265 14.0737 28.8265 14.0775 28.8226L25.8564 21.5759C25.8887 21.5567 25.9129 21.5296 25.9413 21.5065C25.9777 21.4757 26.0183 21.4486 26.0505 21.4179C26.0869 21.3832 26.1153 21.3446 26.1434 21.3099C26.1718 21.2712 26.2041 21.2365 26.2284 21.1942C26.2482 21.1669 26.2686 21.1206 26.2887 21.078L26.2883 21.0775ZM23.7045 8.45351L22.3824 10.6392L19.5562 15.2185L17.5224 11.8573L15.4845 8.48824L18.2018 8.4496H23.7046L23.7045 8.45351ZM11.3757 12.9673L13.4379 9.56357L17.5623 16.3708L9.31353 16.3711L11.3757 12.9673ZM11.3879 8.50742L9.35792 11.857L7.29571 15.2608L3.17963 8.46495L11.3879 8.50742ZM9.56029 18.8731H17.3602L13.4462 25.5957L13.2441 25.2643L9.56029 18.8731ZM5.56138 17.123L2.80382 18.7227L2.51679 11.9309L5.56138 17.123ZM20.0974 19.1315L22.9805 20.7118L16.8546 24.4817L20.0974 19.1315ZM21.646 17.42L21.1325 17.1385L24.416 11.7188L24.4604 11.6418L24.1367 18.7808L21.646 17.42ZM18.1687 6.22998H14.6145L14.6142 2.93421L21.1888 6.19128L18.1687 6.22998ZM12.2854 6.22998H5.8239L12.2812 2.95345V6.22998H12.2854ZM6.79835 19.1548L10.0776 24.5014L3.95171 20.7122L6.79835 19.1548Z" fill="white"/>
</svg>
