<svg width="25" height="28" viewBox="0 0 25 28" fill="none" xmlns="http://www.w3.org/2000/svg">
<path d="M24.5719 6.69325L12.9281 0.11221C12.6633 -0.0374032 12.3371 -0.0374032 12.0719 0.11221L0.428071 6.69325C0.16336 6.84309 0 7.11969 0 7.41913V20.5806C0 20.8803 0.162897 21.1569 0.428071 21.3065L12.0719 27.8876C12.2044 27.9624 12.352 28 12.5 28C12.648 28 12.7956 27.9624 12.9281 27.888L24.5719 21.307C24.8366 21.1571 25 20.8805 25 20.5811L24.9998 7.419C24.9998 7.11933 24.8369 6.84272 24.5719 6.69313L24.5719 6.69325ZM12.4999 1.80603L22.43 7.41827L12.5116 13.026L2.82988 7.27178L12.4999 1.80603ZM1.71235 8.56884L11.6442 14.4722V25.7106L1.71235 20.0971V8.56884ZM13.3562 25.7101V14.4836L23.288 8.86847V20.0972L13.3562 25.7101Z" fill="white"/>
</svg>
