<svg width="25" height="28" viewBox="0 0 25 28" fill="none" xmlns="http://www.w3.org/2000/svg">
<path d="M13.0719 0.246151C12.7219 -0.0820505 12.2112 -0.0820505 11.8612 0.246151L0.340567 11.1246C0.12621 11.3279 0 11.6277 0 11.9452V15.852C0 16.1659 0.122984 16.4656 0.334116 16.669L11.8553 27.7467C12.0318 27.918 12.2494 28 12.467 28C12.6845 28 12.9021 27.9144 13.0786 27.7467L24.6659 16.669C24.8772 16.4656 25 16.1659 25 15.852V11.9489C25 11.6314 24.8738 11.328 24.6594 11.1249L13.0719 0.246151ZM23.1075 14.496L18.2362 13.0938L14.9825 4.82011L23.111 12.4517L23.1075 14.496ZM12.4697 15.7518L8.60437 13.5077L12.4697 3.69621L16.3353 13.5077L12.4697 15.7518ZM7.26429 15.1382L11.524 17.6106V24.6175L2.95408 16.3792L7.26429 15.1382ZM13.4157 17.6106L17.6754 15.1382L22.0264 16.3941L13.4158 24.6249L13.4157 17.6106ZM9.94743 4.84499L6.70001 13.0901L1.89168 14.4778V12.4514L9.94743 4.84499Z" fill="white"/>
</svg>
