<svg width="150" height="24" viewBox="0 0 150 24" fill="none" xmlns="http://www.w3.org/2000/svg">
<path d="M85.9804 0.210987C85.6864 -0.070329 85.2574 -0.070329 84.9634 0.210987L75.2861 9.53533C75.106 9.70967 75 9.96659 75 10.2387V13.5875C75 13.8565 75.1033 14.1134 75.2807 14.2877L84.9585 23.7829C85.1067 23.9297 85.2895 24 85.4723 24C85.655 24 85.8378 23.9266 85.9861 23.7829L95.7193 14.2877C95.8969 14.1134 96 13.8565 96 13.5875V10.2419C96 9.96975 95.894 9.7097 95.7139 9.5356L85.9804 0.210987ZM94.4103 12.4251L90.3184 11.2233L87.5853 4.13153L94.4132 10.6729L94.4103 12.4251ZM85.4746 13.5016L82.2277 11.578L85.4746 3.16818L88.7216 11.578L85.4746 13.5016ZM81.102 12.9756L84.6801 15.0948V21.1007L77.4814 14.0393L81.102 12.9756ZM86.2692 15.0948L89.8473 12.9756L93.5022 14.0521L86.2693 21.107L86.2692 15.0948ZM83.3558 4.15285L80.628 11.22L76.589 12.4095V10.6726L83.3558 4.15285Z" fill="black"/>
<path d="M149.42 17.4435C149.437 17.4085 149.45 17.3732 149.463 17.3349C149.473 17.2966 149.479 17.2584 149.483 17.2201C149.486 17.1914 149.496 17.1626 149.499 17.1339L150 6.02931C150 6.01017 149.997 5.99102 149.997 5.97188C149.997 5.94317 149.997 5.91119 149.993 5.88247C149.99 5.85702 149.983 5.83461 149.98 5.81221C149.973 5.78676 149.97 5.76109 149.964 5.73563C149.957 5.71018 149.947 5.68777 149.937 5.66232C149.927 5.63992 149.921 5.61773 149.911 5.59532C149.901 5.57292 149.885 5.55073 149.871 5.52832C149.858 5.50591 149.848 5.48677 149.832 5.46458C149.816 5.44218 149.799 5.42303 149.783 5.40389C149.766 5.38475 149.753 5.36561 149.733 5.34972C149.713 5.33058 149.694 5.3147 149.67 5.29556C149.651 5.27968 149.634 5.26358 149.614 5.25096C149.591 5.23508 149.565 5.21898 149.539 5.2031C149.522 5.19353 149.506 5.1807 149.489 5.17112L139.398 0.09898C139.368 0.0830995 139.335 0.0798366 139.305 0.0670017C139.269 0.0541668 139.233 0.0382868 139.197 0.0287148C139.154 0.0191433 139.111 0.0158799 139.068 0.00957131C139.032 0.00630826 138.995 0 138.959 0C138.916 0 138.874 0.00630851 138.831 0.0128348C138.795 0.0191434 138.758 0.0224066 138.722 0.0287152C138.679 0.0382872 138.643 0.0574308 138.603 0.0733108C138.574 0.0861457 138.544 0.0891913 138.518 0.105289L128.496 5.26381C128.489 5.26707 128.486 5.27012 128.479 5.27338C128.469 5.27969 128.46 5.28622 128.446 5.29252C128.423 5.30536 128.4 5.32124 128.377 5.33407C128.357 5.34995 128.338 5.36605 128.318 5.38193C128.301 5.39477 128.285 5.40738 128.272 5.42022L128.268 5.42348C128.265 5.42675 128.262 5.42979 128.262 5.43305C128.242 5.4522 128.226 5.47134 128.209 5.49048C128.193 5.50963 128.176 5.52877 128.163 5.54791C128.153 5.56379 128.143 5.57989 128.13 5.59577C128.127 5.60208 128.123 5.60534 128.12 5.6086C128.117 5.61491 128.117 5.62144 128.114 5.62448C128.104 5.64036 128.094 5.65646 128.087 5.67561C128.077 5.69801 128.068 5.7202 128.058 5.74587C128.048 5.76828 128.038 5.79373 128.031 5.81613C128.031 5.8194 128.028 5.82571 128.028 5.82897V5.83223C128.021 5.85138 128.021 5.87052 128.018 5.89292C128.015 5.91838 128.008 5.94078 128.005 5.96623C128.001 5.99169 128.001 6.01736 128.001 6.04281C128.001 6.05564 127.998 6.06826 128.001 6.0811V6.1035L128.459 17.1223C128.459 17.1511 128.469 17.1765 128.476 17.2052C128.482 17.2468 128.486 17.2881 128.499 17.3264C128.509 17.3614 128.525 17.3967 128.538 17.4317C128.555 17.47 128.568 17.505 128.591 17.5402C128.611 17.5722 128.634 17.604 128.657 17.6327C128.683 17.6647 128.707 17.6964 128.736 17.7252C128.762 17.7539 128.795 17.7763 128.829 17.7985C128.852 17.8143 128.871 17.8368 128.894 17.8526L138.442 23.8499C138.442 23.8499 138.446 23.8499 138.446 23.8532C138.515 23.8978 138.591 23.9265 138.667 23.9521C138.683 23.9585 138.703 23.9617 138.719 23.968C138.795 23.9872 138.874 24 138.957 24C139.036 24 139.115 23.9872 139.191 23.968C139.21 23.9648 139.227 23.9585 139.247 23.9521C139.322 23.9297 139.398 23.898 139.464 23.8564C139.467 23.8564 139.467 23.8564 139.471 23.8532L149.068 17.8559C149.094 17.84 149.114 17.8176 149.137 17.7985C149.167 17.773 149.2 17.7506 149.226 17.7252C149.256 17.6964 149.279 17.6645 149.302 17.6357C149.325 17.6038 149.351 17.575 149.371 17.54C149.387 17.5174 149.404 17.4791 149.42 17.4439L149.42 17.4435ZM147.315 6.99601L146.238 8.80483L143.935 12.5946L142.278 9.81293L140.617 7.02475L142.831 6.99277H147.315L147.315 6.99601ZM137.269 10.7316L138.949 7.91468L142.31 13.5483L135.589 13.5485L137.269 10.7316ZM137.279 7.04062L135.625 9.81271L133.945 12.6296L130.591 7.00548L137.279 7.04062ZM135.79 15.6191H142.145L138.956 21.1827L138.791 20.9084L135.79 15.6191ZM132.531 14.1707L130.285 15.4947L130.051 9.87385L132.531 14.1707ZM144.376 15.833L146.725 17.1408L141.733 20.2607L144.376 15.833ZM145.637 14.4166L145.219 14.1836L147.895 9.69834L147.931 9.6346L147.667 15.5428L145.637 14.4166ZM142.804 5.15584H139.908L139.908 2.42831L145.265 5.12382L142.804 5.15584ZM138.01 5.15584H132.745L138.007 2.44424V5.15584H138.01ZM133.539 15.8522L136.211 20.277L131.22 17.1411L133.539 15.8522Z" fill="black"/>
<path d="M10 2L0 20L10 13.9914V2Z" fill="black"/>
<path d="M12 2V13.9914L22 20L12 2Z" fill="black"/>
<path d="M11.0002 15L1 21H21L11.0002 15Z" fill="black"/>
<path d="M69.5196 5.83204L60.2286 0.145003C59.9239 -0.0396274 59.5462 -0.0496956 59.235 0.12487L49.7288 5.42932C49.4176 5.60389 49.222 5.93266 49.2154 6.29165L49.0002 17.2864C48.9936 17.6454 49.1757 17.981 49.4804 18.1688L58.7714 23.8556C58.9304 23.9529 59.1059 24 59.2848 24C59.4504 24 59.6159 23.9597 59.765 23.8758L69.2712 18.5681C69.5824 18.3935 69.778 18.0648 69.7846 17.7058L69.9998 6.711C70.0066 6.35203 69.8243 6.01641 69.5196 5.83198L69.5196 5.83204ZM67.8735 13.8169L62.1894 3.69482L67.9995 7.25113L67.8735 13.8169ZM67.0752 16.4708L52.1002 16.3198L59.5761 3.1111L67.0752 16.4708ZM56.9562 3.69435L51.0501 14.1286L51.1926 6.91219L56.9562 3.69435ZM59.3045 21.8288L53.6173 18.3496L65.3294 18.467L59.3045 21.8288Z" fill="black"/>
<path d="M122.815 8.02355L118.794 2.50668C118.674 2.34212 118.503 2.21957 118.309 2.15511L111.801 0.0483451C111.607 -0.016115 111.396 -0.016115 111.202 0.0483451L104.694 2.15511C104.5 2.21957 104.328 2.34234 104.208 2.50668L100.185 8.02355C100.065 8.18812 100 8.38811 100 8.59139V15.4086C100 15.6118 100.065 15.8118 100.185 15.9764L104.206 21.4933C104.326 21.6578 104.497 21.7804 104.691 21.8448L111.199 23.9516C111.296 23.9839 111.397 24 111.5 24C111.604 24 111.704 23.9839 111.801 23.9516L118.309 21.8448C118.503 21.7804 118.675 21.6576 118.795 21.4933L122.815 15.9764C122.935 15.8118 123 15.6118 123 15.4086V8.59139C123 8.3881 122.935 8.18811 122.815 8.02355ZM120.53 8.18152L117.506 9.47517L112.471 5.82947V2.30346L117.405 3.90046L120.53 8.18152ZM114.43 16.5053H108.57L106.76 10.9528L111.5 7.52002L116.24 10.9528L114.43 16.5053ZM105.592 3.89995L110.526 2.30295V5.83251L105.494 9.47517L102.47 8.18152L105.592 3.89995ZM101.943 15.095V10.0619L104.831 11.2975L106.776 17.2631L105.044 19.3472L101.943 15.095ZM111.5 22.0158L106.653 20.4478L108.321 18.4411H114.676L116.344 20.4478L111.5 22.0158ZM117.956 19.3476L116.224 17.2634L118.17 11.2978L121.058 10.0623V15.0953L117.956 19.3476Z" fill="black"/>
<path d="M44.6404 5.73708L34.8596 0.0961798C34.6372 -0.0320599 34.3631 -0.0320599 34.1404 0.0961798L24.3596 5.73708C24.1372 5.86551 24 6.10259 24 6.35925V17.6406C24 17.8974 24.1368 18.1345 24.3596 18.2627L34.1404 23.9036C34.2517 23.9678 34.3757 24 34.5 24C34.6243 24 34.7483 23.9677 34.8596 23.904L44.6404 18.2631C44.8628 18.1347 45 17.8976 45 17.6409L44.9998 6.35915C44.9998 6.10228 44.863 5.86519 44.6404 5.73697L44.6404 5.73708ZM34.4999 1.54803L42.8412 6.35852L34.5098 11.1652L26.3771 6.23295L34.4999 1.54803ZM25.4384 7.34472L33.7811 12.4047V22.0377L25.4384 17.2261V7.34472ZM35.2192 22.0372V12.4145L43.562 7.60155V17.2262L35.2192 22.0372Z" fill="black"/>
</svg>
